<?xml version="1.0" encoding="utf-8"?><!-- Generator: Adobe Illustrator 16.0.0, SVG Export Plug-In . SVG Version: 6.00 Build 0)  --><!DOCTYPE svg PUBLIC "-//W3C//DTD SVG 1.1//EN" "http://www.w3.org/Graphics/SVG/1.1/DTD/svg11.dtd" [<!ENTITY st0 "fill-rule:evenodd;clip-rule:evenodd;fill:#AEACAC;"><!ENTITY st1 "fill:url(#SVGID_1_);"><!ENTITY st2 "fill:url(#SVGID_2_);"><!ENTITY st3 "fill:url(#SVGID_3_);"><!ENTITY st4 "fill:url(#SVGID_4_);">]>
<svg version="1.1" id="Layer_1" xmlns="http://www.w3.org/2000/svg" xmlns:xlink="http://www.w3.org/1999/xlink" x="0px" y="0px" width="144px" height="144px" viewBox="0 0 144 144" style="enable-background:new 0 0 144 144;" xml:space="preserve" role="img" area-label="Top Patch, Securing the Enterprise">
<g><path style="&st0;" d="M81.166,119.272c-2.679,0.533-5.442,0.834-8.269,0.877c0.003-0.088,0.009-0.178,0.017-0.27c0.895-0.165,1.795-0.309,2.677-0.455c0.938-0.194,1.882-0.365,2.819-0.543c0.845,0.128,1.702,0.242,2.498,0.363C80.997,119.254,81.081,119.262,81.166,119.272L81.166,119.272z M61.567,31.116c2.961-0.708,6.031-1.124,9.188-1.221c-0.013,0.196-0.034,0.41-0.052,0.618c-0.911,0.178-1.826,0.334-2.776,0.513c-0.91,0.192-1.89,0.385-2.887,0.577c-0.827-0.112-1.682-0.25-2.51-0.361C62.213,31.199,61.888,31.156,61.567,31.116L61.567,31.116z M72.854,29.878c3.28,0.049,6.475,0.439,9.552,1.145c-0.447,0.059-0.898,0.125-1.358,0.18c-0.808,0.122-1.667,0.265-2.541,0.408c-0.925-0.208-1.925-0.393-2.855-0.607c-0.965-0.15-1.862-0.312-2.765-0.483C72.883,30.304,72.882,30.08,72.854,29.878L72.854,29.878z M46.197,38.011c1.364-0.949,2.779-1.829,4.245-2.627c-0.104,0.235-0.211,0.475-0.31,0.715c-0.916,0.413-1.806,0.841-2.72,1.282C47.003,37.585,46.602,37.794,46.197,38.011L46.197,38.011z M52.828,34.178c-0.013,0.024-0.025,0.049-0.04,0.077c-0.244,0.498-0.451,1.001-0.658,1.538c0.794,0.15,1.561,0.341,2.377,0.542c0.837,0.233,1.712,0.449,2.562,0.686c1.044-0.417,2.062-0.771,3.087-1.164c1.071-0.369,2.081-0.721,3.146-1.053c0.086-0.517,0.174-1.014,0.267-1.504c0.133-0.45,0.209-0.875,0.329-1.27c-0.881-0.149-1.731-0.255-2.553-0.378c-0.407-0.062-0.812-0.117-1.212-0.169C57.604,32.177,55.161,33.08,52.828,34.178L52.828,34.178z M71.785,36.392c1.016-0.286,2.074-0.572,3.093-0.869c1.002-0.286,2.025-0.535,3.012-0.778c-0.099-0.54-0.148-1.062-0.223-1.547c-0.063-0.433-0.162-0.86-0.187-1.253c-0.949-0.205-1.974-0.425-2.896-0.619c-0.96-0.172-1.891-0.356-2.8-0.536c-0.91,0.18-1.846,0.373-2.806,0.545c-0.923,0.191-1.896,0.419-2.885,0.618c-0.071,0.397-0.127,0.812-0.219,1.274c-0.03,0.47-0.117,0.955-0.225,1.518c0.994,0.235,2.039,0.506,3.019,0.769C69.71,35.82,70.756,36.12,71.785,36.392L71.785,36.392z M83.838,31.38c-0.516,0.068-1.045,0.146-1.574,0.221c-0.837,0.139-1.681,0.266-2.546,0.402c0.069,0.397,0.14,0.826,0.27,1.269c0.138,0.489,0.195,0.975,0.272,1.521c1.094,0.324,2.105,0.671,3.178,1.026c1.033,0.359,2.093,0.77,3.101,1.162c0.896-0.249,1.746-0.498,2.592-0.697c0.839-0.22,1.637-0.419,2.411-0.577c-0.187-0.529-0.408-1.062-0.635-1.533c-0.07-0.128-0.136-0.252-0.197-0.372C88.507,32.818,86.211,32.005,83.838,31.38L83.838,31.38z M93.128,34.97c2.07,1.076,4.048,2.305,5.914,3.677L99,38.654c-0.861-0.471-1.747-0.94-2.672-1.374c-0.88-0.418-1.78-0.849-2.762-1.269C93.433,35.657,93.281,35.308,93.128,34.97L93.128,34.97z M36.414,47.254c2.11-2.688,4.521-5.133,7.178-7.284c-0.199,0.613-0.419,1.23-0.61,1.866c-0.2,0.782-0.38,1.603-0.607,2.429c-0.854,0.563-1.634,1.182-2.414,1.804c-0.795,0.578-1.561,1.226-2.282,1.861C37.229,47.707,36.809,47.462,36.414,47.254L36.414,47.254z M48.773,45.833c1.016-0.586,2.022-1.177,3.049-1.739c1.023-0.576,2.089-1.112,3.127-1.632c0.149-0.862,0.258-1.694,0.417-2.493c0.112-0.757,0.257-1.481,0.407-2.174c-0.866-0.263-1.704-0.498-2.515-0.705c-0.785-0.213-1.566-0.393-2.324-0.563c-0.924,0.421-1.869,0.849-2.793,1.297c-0.892,0.479-1.795,0.95-2.727,1.433c-0.187,0.686-0.421,1.433-0.607,2.175c-0.208,0.762-0.423,1.573-0.587,2.45c0.686,0.283,1.41,0.592,2.146,0.912C47.137,45.105,47.977,45.455,48.773,45.833L48.773,45.833z M63.597,44.756c-1.083-0.464-2.142-0.906-3.187-1.317c-1.023-0.393-2.037-0.777-3.027-1.177c0.107-0.862,0.216-1.68,0.309-2.474c0.158-0.782,0.278-1.501,0.402-2.193c1.049-0.419,2.125-0.834,3.149-1.213c1.101-0.355,2.116-0.71,3.134-1.023c1.009,0.234,2.018,0.497,3.005,0.784c1.009,0.332,2.068,0.618,3.115,0.946c0,0.714-0.036,1.463-0.028,2.224c-0.008,0.79-0.028,1.61-0.052,2.488c-1.117,0.471-2.254,0.918-3.391,1.423C65.874,43.715,64.727,44.227,63.597,44.756L63.597,44.756z M79.951,44.747c-1.132-0.525-2.29-1.024-3.428-1.517c-1.146-0.471-2.274-0.969-3.394-1.454c-0.022-0.848-0.005-1.674-0.028-2.478c-0.013-0.756-0.029-1.495-0.05-2.215c1.045-0.3,2.09-0.612,3.129-0.921c1.001-0.284,2.018-0.556,3.007-0.812c1.051,0.321,2.108,0.649,3.157,1.005c1.03,0.386,2.107,0.776,3.162,1.199c0.123,0.689,0.244,1.438,0.401,2.205c0.058,0.785,0.192,1.62,0.286,2.466c-0.974,0.414-1.982,0.806-3.015,1.189C82.142,43.85,81.055,44.292,79.951,44.747L79.951,44.747z M94.947,45.78c-1.031-0.613-2.055-1.176-3.064-1.738c-1.053-0.578-2.137-1.104-3.227-1.603c-0.136-0.891-0.221-1.717-0.386-2.508c-0.131-0.754-0.259-1.496-0.388-2.195c0.851-0.249,1.724-0.507,2.534-0.741c0.802-0.198,1.584-0.391,2.369-0.563c0.938,0.42,1.904,0.855,2.837,1.312c0.892,0.45,1.837,0.948,2.725,1.388c0.21,0.706,0.467,1.434,0.664,2.187c0.181,0.779,0.397,1.605,0.604,2.454c-0.716,0.297-1.467,0.605-2.229,0.932C96.605,45.054,95.762,45.398,94.947,45.78L94.947,45.78z M100.206,39.524c2.821,2.208,5.368,4.746,7.592,7.547c-0.025,0.016-0.052,0.031-0.079,0.047c-0.472,0.229-0.99,0.471-1.497,0.762c-0.751-0.634-1.511-1.275-2.317-1.879c-0.78-0.634-1.598-1.277-2.423-1.839c-0.251-0.833-0.419-1.658-0.622-2.444c-0.258-0.743-0.492-1.46-0.714-2.181L100.206,39.524L100.206,39.524z M30.428,57.352c1.366-3.196,3.096-6.203,5.133-8.971c0.386,0.205,0.788,0.459,1.222,0.693c-0.179,0.962-0.338,1.932-0.517,2.907c-0.129,1.041-0.286,2.095-0.438,3.169c-0.649,0.679-1.272,1.399-1.888,2.068c-0.543,0.669-1.081,1.361-1.647,2.054c-0.373-0.429-0.772-0.799-1.145-1.156C30.891,57.84,30.652,57.596,30.428,57.352L30.428,57.352z M41.335,57.568c0.829-0.714,1.717-1.411,2.613-2.104c0.915-0.669,1.853-1.346,2.845-2.037c0.095-1.148,0.224-2.287,0.333-3.363c0.179-1.062,0.292-2.089,0.408-3.114c-0.822-0.364-1.565-0.719-2.328-1.062c-0.706-0.336-1.438-0.664-2.104-0.955c-0.901,0.571-1.703,1.196-2.533,1.838c-0.804,0.599-1.561,1.24-2.307,1.854c-0.177,0.974-0.344,1.952-0.483,2.976c-0.146,1.043-0.31,2.119-0.437,3.202c0.571,0.412,1.216,0.869,1.874,1.324C39.905,56.585,40.611,57.047,41.335,57.568L41.335,57.568z M55.005,56.539c-1.043-0.582-2.066-1.158-3.091-1.721c-0.996-0.577-1.939-1.119-2.879-1.61c0.136-1.148,0.258-2.279,0.345-3.363c0.129-1.085,0.251-2.16,0.359-3.179c1.022-0.59,2.046-1.182,3.1-1.731c1.086-0.585,2.116-1.141,3.192-1.653c1.001,0.37,1.988,0.784,3.012,1.191c1.023,0.404,2.085,0.863,3.179,1.309c-0.078,1.061-0.115,2.151-0.209,3.242c-0.021,1.119-0.07,2.281-0.136,3.5c-1.158,0.626-2.316,1.283-3.487,1.973C57.231,55.181,56.124,55.857,55.005,56.539L55.005,56.539z M71.791,56.148c1.181-0.592,2.398-1.248,3.557-1.861c1.204-0.61,2.371-1.219,3.524-1.812c-0.023-1.216-0.076-2.376-0.092-3.524c-0.046-1.112-0.104-2.166-0.124-3.198c-1.151-0.563-2.299-1.076-3.471-1.575c-1.14-0.505-2.264-0.985-3.43-1.518c-1.089,0.513-2.233,0.984-3.421,1.497c-1.151,0.504-2.303,1.039-3.492,1.566c0.012,1.04-0.03,2.111-0.087,3.219c-0.052,1.135-0.052,2.316-0.123,3.515c1.176,0.598,2.383,1.204,3.528,1.787C69.38,54.9,70.554,55.542,71.791,56.148L71.791,56.148z M88.621,56.538c1.065-0.605,2.098-1.159,3.111-1.745c0.995-0.577,1.948-1.068,2.899-1.588c-0.099-1.183-0.222-2.331-0.35-3.399c-0.093-1.118-0.209-2.187-0.366-3.199c-1.008-0.591-2.045-1.168-3.113-1.746c-1.044-0.555-2.161-1.097-3.24-1.617c-0.975,0.384-1.962,0.797-2.994,1.197c-1.053,0.421-2.104,0.868-3.208,1.34c0.087,1.038,0.122,2.13,0.18,3.225c0.034,1.149,0.071,2.325,0.158,3.521c1.182,0.621,2.311,1.291,3.47,1.961C86.337,55.163,87.498,55.849,88.621,56.538L88.621,56.538z M102.44,57.6c0.776-0.512,1.498-1.031,2.192-1.468c0.657-0.425,1.308-0.876,1.938-1.33c-0.157-1.1-0.321-2.173-0.467-3.23c-0.133-1.003-0.343-2.021-0.482-2.963c-0.725-0.664-1.533-1.297-2.364-1.911c-0.821-0.618-1.646-1.282-2.505-1.879c-0.73,0.33-1.438,0.635-2.183,0.989c-0.746,0.344-1.555,0.694-2.393,1.086c0.131,1.023,0.267,2.085,0.388,3.119c0.134,1.136,0.217,2.28,0.338,3.442c1.007,0.646,1.931,1.339,2.896,2.031C100.688,56.182,101.591,56.867,102.44,57.6L102.44,57.6z M108.656,48.189c2.06,2.771,3.805,5.782,5.19,8.984c-0.296,0.286-0.613,0.613-0.946,0.96c-0.38,0.362-0.773,0.77-1.199,1.16c-0.528-0.667-1.1-1.365-1.688-2.065c-0.599-0.684-1.251-1.361-1.916-2.11c-0.188-1.053-0.314-2.122-0.465-3.17c-0.144-0.969-0.309-1.987-0.478-2.926c0.506-0.28,0.984-0.573,1.451-0.807L108.656,48.189L108.656,48.189z M27.349,68.123l-0.008,0.195c0.199,0.457,0.437,0.893,0.7,1.384c0.25,0.477,0.535,0.96,0.81,1.518c0.367-0.62,0.702-1.269,1.1-1.852c0.418-0.655,0.827-1.292,1.255-1.974c0.079-1.163,0.15-2.344,0.185-3.493c0.094-1.103,0.187-2.266,0.274-3.391c-0.38-0.379-0.745-0.769-1.094-1.161c-0.219-0.259-0.442-0.506-0.651-0.752C28.729,61.629,27.855,64.817,27.349,68.123L27.349,68.123z M35.563,70.707c0.659-0.713,1.354-1.375,2.034-2.082c0.737-0.678,1.497-1.348,2.269-2.102c0.029-1.297,0.094-2.601,0.188-3.893c0.083-1.251,0.158-2.492,0.222-3.751c-0.674-0.47-1.354-0.978-2.019-1.454c-0.638-0.479-1.238-0.92-1.817-1.37c-0.666,0.721-1.312,1.389-1.957,2.118c-0.576,0.676-1.158,1.382-1.718,2.038c-0.084,1.138-0.158,2.279-0.241,3.462c-0.065,1.146-0.15,2.4-0.186,3.576c0.479,0.522,0.964,1.088,1.509,1.662C34.406,69.453,34.97,70.057,35.563,70.707L35.563,70.707z M47.082,70.314c-0.917-0.686-1.849-1.326-2.735-1.997c-0.85-0.634-1.722-1.275-2.547-1.921c0.021-1.321,0.078-2.645,0.165-3.941c0.07-1.27,0.149-2.544,0.252-3.784c0.85-0.72,1.787-1.412,2.689-2.095c0.959-0.698,1.897-1.402,2.871-2.086c0.944,0.568,1.89,1.08,2.834,1.638c0.993,0.548,1.995,1.132,3.045,1.716c-0.066,1.305-0.124,2.659-0.181,3.969c-0.053,1.361-0.118,2.764-0.124,4.154c-1.095,0.733-2.184,1.461-3.215,2.172C49.116,68.861,48.093,69.579,47.082,70.314L47.082,70.314z M62.93,70.143c1.244-0.742,2.419-1.512,3.677-2.168c1.217-0.726,2.442-1.474,3.68-2.193c-0.005-1.432,0.017-2.821,0.024-4.226c-0.024-1.375-0.008-2.741,0.014-4.061c-1.202-0.67-2.413-1.303-3.601-1.931c-1.175-0.612-2.347-1.254-3.501-1.858c-1.151,0.646-2.333,1.311-3.534,2.008c-1.148,0.685-2.271,1.361-3.401,2.061c-0.092,1.302-0.151,2.628-0.186,3.96c-0.015,1.382-0.101,2.765-0.124,4.196c1.125,0.664,2.273,1.361,3.438,2.066C60.58,68.66,61.755,69.401,62.93,70.143L62.93,70.143z M80.536,70.196c-1.192-0.719-2.375-1.48-3.619-2.192c-1.219-0.741-2.455-1.461-3.672-2.188c-0.017-1.451-0.017-2.863-0.017-4.247c-0.011-1.381-0.005-2.729-0.02-4.081c1.23-0.642,2.42-1.27,3.577-1.925c1.219-0.627,2.401-1.232,3.529-1.833c1.196,0.649,2.384,1.292,3.551,1.966c1.168,0.706,2.341,1.375,3.45,2.067c0.065,1.319,0.07,2.679,0.128,4.046c0.054,1.376,0.072,2.751,0.08,4.183c-1.104,0.668-2.256,1.388-3.416,2.102C82.929,68.787,81.731,69.494,80.536,70.196L80.536,70.196z M96.542,70.411c-1.001-0.713-2.033-1.453-3.074-2.182c-1.041-0.72-2.144-1.444-3.244-2.186c-0.036-1.376-0.036-2.788-0.099-4.175c-0.064-1.346-0.145-2.665-0.182-3.983c1.06-0.598,2.091-1.154,3.087-1.745c0.959-0.573,1.91-1.075,2.825-1.618c1.03,0.671,2.021,1.368,2.942,2.073c0.976,0.712,1.868,1.39,2.741,2.087c0.079,1.277,0.15,2.543,0.244,3.82c0.06,1.311,0.13,2.648,0.164,3.996c-0.829,0.642-1.689,1.271-2.592,1.926C98.44,69.051,97.494,69.735,96.542,70.411L96.542,70.411z M108.331,70.804c-0.678-0.677-1.373-1.397-2.104-2.067c-0.728-0.7-1.516-1.425-2.305-2.123c-0.056-1.311-0.104-2.643-0.187-3.934c-0.063-1.262-0.14-2.507-0.25-3.727c0.744-0.513,1.439-1.019,2.119-1.511c0.646-0.47,1.271-0.947,1.846-1.383c0.71,0.735,1.347,1.439,1.998,2.118c0.623,0.719,1.206,1.408,1.771,2.1c0.084,1.098,0.163,2.302,0.255,3.462c0.08,1.189,0.128,2.394,0.182,3.582c-0.502,0.574-1.001,1.127-1.584,1.705C109.529,69.585,108.94,70.195,108.331,70.804L108.331,70.804z M114.372,58.428c-0.278,0.295-0.561,0.626-0.878,0.982c-0.366,0.347-0.737,0.748-1.132,1.155c0.078,1.129,0.186,2.279,0.25,3.41c0.073,1.171,0.138,2.344,0.201,3.563c0.449,0.651,0.887,1.297,1.28,1.947c0.423,0.618,0.789,1.253,1.146,1.864c0.316-0.512,0.586-1.012,0.859-1.495c0.273-0.473,0.514-0.926,0.738-1.404c-0.024-0.596-0.055-1.199-0.084-1.796C116.219,63.809,115.416,61.057,114.372,58.428L114.372,58.428z M27.283,81.433c-0.302-2.096-0.459-4.239-0.459-6.42c0-1.819,0.112-3.614,0.319-5.378c0.174,0.371,0.354,0.785,0.547,1.184c0.216,0.486,0.501,1.028,0.787,1.527c-0.006,1.148-0.041,2.238-0.041,3.392c0.012,1.127,0.02,2.229,0.047,3.327c-0.269,0.497-0.519,1.019-0.786,1.48C27.561,80.837,27.418,81.134,27.283,81.433L27.283,81.433z M31.751,83.038c-0.48-0.633-0.919-1.312-1.345-1.98c-0.397-0.633-0.8-1.246-1.156-1.873c-0.013-1.154-0.034-2.286-0.057-3.418c0.016-1.156,0.035-2.305,0.044-3.479c0.363-0.592,0.722-1.219,1.149-1.845c0.426-0.636,0.869-1.29,1.328-1.946c0.465,0.548,0.938,1.134,1.444,1.697c0.523,0.578,1.061,1.196,1.647,1.824c-0.009,1.26-0.035,2.556-0.05,3.839c0.005,1.291,0.021,2.556,0.05,3.842c-0.539,0.59-1.096,1.16-1.634,1.723C32.679,82.013,32.192,82.524,31.751,83.038L31.751,83.038z M40.794,84.007c-0.814-0.727-1.572-1.451-2.353-2.157c-0.709-0.704-1.444-1.384-2.14-2.074c0.009-1.289-0.027-2.581-0.038-3.91c-0.007-1.306,0.038-2.614,0.074-3.905c0.644-0.698,1.359-1.383,2.104-2.052c0.738-0.706,1.539-1.446,2.326-2.09c0.817,0.613,1.647,1.242,2.479,1.896c0.857,0.698,1.754,1.334,2.711,2.003c-0.043,1.411-0.057,2.807-0.073,4.231c0.008,1.359,0.008,2.772,0.029,4.204c-0.902,0.627-1.781,1.318-2.669,1.959C42.421,82.747,41.584,83.381,40.794,84.007L40.794,84.007z M54.632,84.556c1.097-0.689,2.214-1.362,3.337-2.064c1.136-0.693,2.332-1.397,3.492-2.125c-0.015-1.454,0.015-2.936-0.034-4.383c0.073-1.438,0.049-2.915,0.073-4.401c-1.16-0.701-2.372-1.448-3.501-2.145c-1.118-0.714-2.218-1.413-3.372-2.06c-1.103,0.671-2.185,1.431-3.257,2.128c-1.075,0.758-2.098,1.463-3.128,2.175c0.008,1.434-0.017,2.837-0.023,4.282c-0.028,1.384,0,2.81,0.022,4.213c1.021,0.733,2.082,1.457,3.1,2.186C52.442,83.072,53.532,83.815,54.632,84.556L54.632,84.556z M71.685,84.798c-1.234-0.729-2.479-1.455-3.703-2.188c-1.225-0.705-2.411-1.49-3.642-2.23c-0.028-1.451-0.036-2.93-0.046-4.388c0.065-1.447,0.053-2.943,0.103-4.405c1.203-0.712,2.442-1.459,3.648-2.166c1.235-0.758,2.494-1.496,3.733-2.187c1.222,0.747,2.446,1.48,3.664,2.223c1.266,0.704,2.44,1.487,3.68,2.223c-0.01,1.461,0,2.965-0.037,4.41c-0.015,1.466-0.015,2.935-0.015,4.402c-1.239,0.703-2.5,1.435-3.728,2.158C74.137,83.407,72.9,84.114,71.685,84.798L71.685,84.798z M88.847,84.667c1.125-0.734,2.241-1.43,3.292-2.18c1.083-0.733,2.126-1.462,3.152-2.195c0.042-1.38,0.034-2.828,0.063-4.225c0.071-1.409,0.022-2.827,0.014-4.289c-1.028-0.711-2.075-1.439-3.148-2.165c-1.089-0.741-2.212-1.462-3.306-2.167c-1.102,0.67-2.256,1.375-3.414,2.075c-1.142,0.719-2.301,1.444-3.48,2.165c-0.002,1.467-0.015,2.948-0.044,4.403c-0.029,1.466-0.012,2.935-0.029,4.389c1.183,0.691,2.348,1.41,3.5,2.088C86.604,83.292,87.759,83.972,88.847,84.667L88.847,84.667z M102.898,84.147c0.823-0.689,1.641-1.404,2.391-2.11c0.731-0.684,1.495-1.388,2.197-2.073c0.021-1.316,0.037-2.658,0.072-3.959c0.057-1.312-0.016-2.606,0.001-3.949c-0.696-0.675-1.419-1.353-2.172-2.045c-0.763-0.719-1.561-1.424-2.396-2.114c-0.802,0.596-1.669,1.247-2.498,1.93c-0.909,0.663-1.793,1.323-2.771,2.016c0.023,1.39,0.052,2.801-0.023,4.239c-0.005,1.361-0.005,2.771-0.041,4.19c0.938,0.661,1.853,1.289,2.756,1.958C101.266,82.907,102.104,83.526,102.898,84.147L102.898,84.147z M112.212,83.243c0.484-0.627,0.95-1.29,1.389-1.938c0.414-0.671,0.821-1.276,1.202-1.896c-0.008-1.162,0.051-2.316,0.051-3.442c0.043-1.181,0.014-2.349-0.007-3.512c-0.379-0.605-0.745-1.24-1.188-1.882c-0.452-0.646-0.887-1.255-1.374-1.938c-0.466,0.55-0.973,1.099-1.491,1.669c-0.53,0.583-1.088,1.238-1.689,1.795c-0.012,1.326,0.044,2.58,0,3.933c-0.034,1.289-0.035,2.556-0.085,3.834c0.614,0.61,1.159,1.196,1.711,1.773C111.246,82.194,111.748,82.751,112.212,83.243L112.212,83.243z M117.229,69.804c0.198,1.709,0.303,3.448,0.303,5.209c0,2.368-0.185,4.691-0.538,6.96c-0.183-0.388-0.393-0.792-0.588-1.198c-0.258-0.455-0.537-0.959-0.803-1.493c0.022-1.12,0.035-2.216,0.071-3.378c0.016-1.098-0.012-2.238-0.027-3.348c0.277-0.535,0.573-1.041,0.823-1.548c0.229-0.483,0.467-0.932,0.672-1.423C117.171,69.655,117.199,69.728,117.229,69.804L117.229,69.804z M30.315,92.407c0.122-0.133,0.247-0.264,0.374-0.392c0.337-0.363,0.688-0.741,1.072-1.124c-0.094-1.076-0.164-2.188-0.285-3.35c-0.078-1.104-0.128-2.236-0.2-3.392c-0.451-0.676-0.901-1.353-1.296-1.989c-0.365-0.66-0.736-1.303-1.088-1.906c-0.297,0.498-0.572,0.998-0.822,1.431c-0.213,0.376-0.401,0.745-0.572,1.099C28.077,86.132,29.034,89.355,30.315,92.407L30.315,92.407z M36.579,95.387c0.594-0.436,1.188-0.813,1.798-1.275c0.653-0.449,1.33-0.927,2.026-1.419c-0.109-1.188-0.186-2.407-0.297-3.627c-0.055-1.28-0.162-2.558-0.219-3.854c-0.793-0.736-1.544-1.439-2.262-2.14c-0.708-0.66-1.389-1.394-2.039-2.028c-0.582,0.562-1.2,1.147-1.711,1.703c-0.53,0.512-1.019,1.069-1.525,1.573c0.106,1.204,0.171,2.38,0.256,3.549c0.082,1.121,0.167,2.23,0.274,3.362c0.563,0.678,1.135,1.375,1.744,2.054C35.242,93.982,35.893,94.688,36.579,95.387L36.579,95.387z M47.897,97.087c0.893-0.519,1.838-1.019,2.784-1.531c0.952-0.533,1.947-1.096,2.964-1.667c-0.01-1.29-0.067-2.629-0.144-3.917c-0.057-1.342-0.116-2.709-0.157-4.075c-1.088-0.728-2.161-1.44-3.227-2.146c-1.013-0.733-2.021-1.495-3.028-2.215c-0.931,0.685-1.839,1.333-2.736,1.995c-0.858,0.599-1.71,1.219-2.548,1.811c0.064,1.346,0.143,2.621,0.229,3.902c0.093,1.231,0.181,2.487,0.224,3.715c0.915,0.725,1.823,1.389,2.747,2.095C45.95,95.735,46.903,96.397,47.897,97.087L47.897,97.087z M63.198,97.987c-1.181-0.637-2.348-1.283-3.501-1.932c-1.134-0.69-2.315-1.355-3.44-2.046c-0.058-1.282-0.114-2.594-0.129-3.918c-0.063-1.39-0.121-2.729-0.162-4.112c1.142-0.683,2.283-1.36,3.427-2.045c1.188-0.711,2.334-1.381,3.516-2.1c1.225,0.732,2.411,1.459,3.628,2.188c1.204,0.738,2.447,1.467,3.651,2.178c0.03,1.397,0.03,2.793,0.02,4.168c0.037,1.346,0.029,2.665,0.021,3.969c-1.182,0.663-2.361,1.254-3.558,1.859C65.518,96.787,64.353,97.381,63.198,97.987L63.198,97.987z M80.188,98.035c1.198-0.626,2.374-1.282,3.549-1.91c1.145-0.696,2.321-1.353,3.442-2.059c0.037-1.29,0.094-2.573,0.158-3.876c0.048-1.348,0.1-2.735,0.136-4.111c-1.13-0.67-2.261-1.354-3.422-2.039c-1.174-0.683-2.367-1.416-3.556-2.114c-1.212,0.721-2.47,1.417-3.651,2.165c-1.248,0.697-2.478,1.411-3.687,2.131c-0.024,1.432-0.024,2.815-0.016,4.176c0.008,1.331,0,2.693,0.008,3.982c1.173,0.625,2.378,1.252,3.564,1.881C77.882,96.837,79.057,97.45,80.188,98.035L80.188,98.035z M95.69,97.223c-0.879-0.479-1.812-0.978-2.829-1.532c-0.979-0.549-2.023-1.134-3.047-1.725c0.077-1.246,0.142-2.565,0.164-3.869c0.057-1.34,0.122-2.698,0.164-4.082c1.117-0.729,2.177-1.453,3.271-2.159c1.03-0.739,2.055-1.459,3.043-2.174c0.98,0.679,1.93,1.325,2.82,1.968c0.88,0.621,1.775,1.254,2.582,1.874c-0.076,1.317-0.135,2.601-0.215,3.905c-0.099,1.281-0.177,2.514-0.257,3.719c-0.91,0.689-1.825,1.346-2.762,2.077C97.708,95.911,96.688,96.558,95.69,97.223L95.69,97.223z M107.227,95.641c-0.57-0.429-1.171-0.869-1.821-1.334c-0.676-0.47-1.347-0.909-2.091-1.438c0.113-1.197,0.179-2.414,0.271-3.648c0.108-1.23,0.173-2.537,0.215-3.847c0.845-0.684,1.625-1.417,2.341-2.101c0.761-0.701,1.438-1.361,2.106-2.039c0.613,0.554,1.207,1.176,1.783,1.689c0.519,0.562,1.048,1.103,1.542,1.609c-0.075,1.203-0.14,2.395-0.249,3.567c-0.086,1.112-0.164,2.248-0.273,3.378c-0.578,0.678-1.166,1.362-1.8,2.08C108.633,94.214,107.931,94.942,107.227,95.641L107.227,95.641z M116.752,83.381c-0.622,3.292-1.598,6.458-2.896,9.456c-0.168-0.175-0.344-0.346-0.521-0.525c-0.353-0.404-0.738-0.762-1.146-1.14c0.1-1.084,0.198-2.196,0.286-3.35c0.08-1.116,0.156-2.265,0.228-3.447c0.466-0.692,0.931-1.324,1.339-1.961c0.39-0.683,0.775-1.296,1.14-1.929c0.308,0.52,0.586,0.996,0.874,1.453c0.25,0.476,0.479,0.918,0.701,1.354L116.752,83.381L116.752,83.381z M36.25,102.563c-2.124-2.744-3.942-5.734-5.398-8.926c0.149-0.138,0.297-0.271,0.445-0.403c0.345-0.37,0.732-0.683,1.132-1.069c0.529,0.685,1.087,1.355,1.69,2.039c0.606,0.677,1.224,1.403,1.882,2.072c0.15,1.02,0.301,2.066,0.485,3.05c0.166,0.948,0.307,1.902,0.516,2.835C36.739,102.307,36.491,102.438,36.25,102.563L36.25,102.563z M43.299,106.252c-0.871-0.571-1.68-1.177-2.459-1.811c-0.826-0.604-1.577-1.213-2.358-1.832c-0.186-0.938-0.354-1.881-0.529-2.862c-0.148-1.021-0.321-2.059-0.456-3.106c0.588-0.385,1.209-0.805,1.854-1.263c0.645-0.427,1.359-0.884,2.066-1.344c0.854,0.718,1.747,1.395,2.627,2.07c0.938,0.68,1.912,1.348,2.877,2.012c0.087,1.125,0.181,2.242,0.345,3.277c0.129,1.068,0.259,2.05,0.395,3.013c-0.767,0.378-1.537,0.69-2.29,0.997C44.656,105.73,43.968,105.974,43.299,106.252L43.299,106.252z M56.134,107.954c-1.089-0.497-2.097-1.02-3.17-1.561c-1.039-0.55-2.055-1.107-3.092-1.725c-0.155-0.983-0.272-1.967-0.394-2.998c-0.115-1.084-0.208-2.203-0.366-3.301c0.938-0.477,1.903-0.982,2.835-1.511c1.009-0.548,2.014-1.088,3.071-1.66c1.088,0.7,2.218,1.339,3.351,2.011c1.182,0.676,2.354,1.303,3.514,1.93c0.027,1.154,0.094,2.271,0.164,3.356c0.05,1.091,0.101,2.107,0.179,3.085c-1.038,0.461-2.067,0.862-3.098,1.26C58.091,107.235,57.124,107.612,56.134,107.954L56.134,107.954z M71.738,108.579c1.134-0.441,2.269-0.89,3.358-1.374c1.166-0.479,2.318-0.983,3.438-1.482c0.062-1.005,0.098-2.052,0.122-3.099c0.011-1.113,0.093-2.244,0.121-3.371c-1.171-0.576-2.335-1.185-3.494-1.75c-1.218-0.601-2.369-1.207-3.608-1.854c-1.18,0.576-2.391,1.197-3.55,1.811c-1.176,0.583-2.326,1.16-3.488,1.745c0.036,1.145,0.072,2.294,0.123,3.369c0.029,1.07,0.063,2.104,0.115,3.092c1.16,0.515,2.317,1.027,3.478,1.541C69.464,107.626,70.615,108.101,71.738,108.579L71.738,108.579z M87.374,108.054c-0.968-0.378-1.958-0.749-3-1.12c-1.03-0.411-2.062-0.854-3.145-1.287c0.06-0.985,0.138-2.047,0.166-3.089c0.036-1.102,0.093-2.215,0.143-3.347c1.183-0.636,2.342-1.262,3.488-1.932c1.15-0.679,2.317-1.326,3.397-2.017c1.076,0.584,2.112,1.135,3.129,1.675c0.981,0.548,1.896,1.048,2.827,1.53c-0.115,1.128-0.215,2.225-0.309,3.329c-0.127,1.024-0.251,2.03-0.408,2.999c-1.007,0.576-2.055,1.147-3.076,1.679C89.519,107.024,88.446,107.524,87.374,108.054L87.374,108.054z M100.399,106.442c0.882-0.605,1.738-1.176,2.562-1.768c0.796-0.636,1.59-1.228,2.355-1.818c0.209-0.977,0.357-1.924,0.529-2.893c0.165-1.02,0.311-2.046,0.473-3.078c-0.606-0.447-1.246-0.854-1.904-1.295c-0.688-0.441-1.382-0.892-2.139-1.391c-0.867,0.707-1.765,1.383-2.685,2.087c-0.925,0.636-1.893,1.312-2.905,1.997c-0.092,1.104-0.23,2.15-0.38,3.24c-0.109,1.006-0.215,2.039-0.418,3.021c0.839,0.363,1.625,0.676,2.37,0.99C99.038,105.87,99.721,106.179,100.399,106.442L100.399,106.442z M113.292,94.085c-0.19-0.186-0.391-0.371-0.589-0.592c-0.356-0.355-0.741-0.696-1.181-1.06c-0.515,0.655-1.132,1.322-1.732,2.038c-0.606,0.677-1.281,1.375-1.951,2.059c-0.168,1.048-0.304,2.053-0.475,3.063c-0.165,0.947-0.33,1.91-0.552,2.815c0.363,0.172,0.699,0.34,1.019,0.506C109.975,100.208,111.812,97.243,113.292,94.085L113.292,94.085z M43.514,109.998c-0.09-0.259-0.183-0.524-0.27-0.798c-0.244-0.727-0.407-1.504-0.631-2.321c-0.835-0.563-1.662-1.168-2.414-1.761c-0.757-0.613-1.531-1.195-2.253-1.844c-0.269,0.131-0.548,0.261-0.82,0.387C39.039,105.978,41.183,108.099,43.514,109.998L43.514,109.998z M51.183,114.267c0.742-0.143,1.544-0.299,2.289-0.484c0.814-0.199,1.661-0.414,2.491-0.643c-0.165-0.647-0.329-1.338-0.463-2.057c-0.138-0.749-0.296-1.533-0.417-2.354c-1.04-0.506-2.075-1.024-3.113-1.547c-1.032-0.554-2.031-1.11-3.028-1.687c-0.845,0.313-1.631,0.655-2.365,0.954c-0.733,0.305-1.456,0.6-2.181,0.863c0.208,0.805,0.429,1.567,0.631,2.308c0.228,0.727,0.466,1.403,0.725,2.044c0.913,0.471,1.78,0.92,2.675,1.369C49.348,113.456,50.251,113.868,51.183,114.267L51.183,114.267z M64.532,115.442c0.942-0.243,1.916-0.499,2.897-0.764c1.011-0.266,2.034-0.557,3.084-0.875c-0.029-0.626-0.076-1.334-0.085-2.038c-0.009-0.776,0-1.541,0-2.353c-1.123-0.436-2.274-0.883-3.398-1.377c-1.152-0.488-2.276-0.938-3.431-1.458c-1.029,0.442-2.09,0.854-3.12,1.24c-1.024,0.348-2.026,0.748-2.956,1.09c0.065,0.819,0.207,1.604,0.308,2.373c0.157,0.712,0.286,1.381,0.406,2.031c1.053,0.404,2.099,0.761,3.138,1.124C62.411,114.802,63.508,115.12,64.532,115.442L64.532,115.442z M79.063,115.497c-0.985-0.262-1.949-0.54-2.971-0.775c-0.996-0.309-2.005-0.6-3.081-0.885c0.008-0.646,0.035-1.332,0.052-2.044c-0.017-0.757,0-1.523,0.007-2.358c1.117-0.441,2.219-0.882,3.344-1.334c1.146-0.499,2.287-0.97,3.435-1.451c1.073,0.413,2.126,0.848,3.157,1.23c1.036,0.393,2.037,0.75,3.005,1.097c-0.084,0.828-0.198,1.624-0.336,2.372c-0.136,0.721-0.259,1.385-0.344,2.039c-1.045,0.385-2.1,0.762-3.141,1.135C81.144,114.849,80.093,115.198,79.063,115.497L79.063,115.497z M92.489,114.385c0.938-0.392,1.89-0.813,2.794-1.237c0.903-0.415,1.816-0.899,2.661-1.342c0.273-0.643,0.472-1.325,0.701-2.036c0.201-0.742,0.428-1.513,0.615-2.31c-0.717-0.299-1.452-0.578-2.203-0.884c-0.745-0.313-1.561-0.656-2.428-0.978c-0.951,0.562-2.012,1.135-3.034,1.686c-1.024,0.52-2.096,1.031-3.127,1.517c-0.152,0.832-0.28,1.616-0.417,2.35c-0.106,0.719-0.287,1.397-0.423,2.06c0.851,0.233,1.695,0.449,2.539,0.662C90.966,114.065,91.729,114.229,92.489,114.385L92.489,114.385z M106.938,104.006c-2.061,2.442-4.371,4.665-6.897,6.625c0.147-0.415,0.285-0.841,0.425-1.263c0.241-0.74,0.447-1.488,0.641-2.321c0.84-0.563,1.689-1.14,2.516-1.716c0.758-0.614,1.532-1.213,2.246-1.796C106.23,103.706,106.593,103.85,106.938,104.006L106.938,104.006z M61.316,118.85c-2.96-0.721-5.806-1.733-8.503-3.005c-0.142-0.288-0.271-0.582-0.387-0.881c0.743-0.157,1.511-0.306,2.297-0.492c0.823-0.205,1.668-0.404,2.535-0.625c1.018,0.396,2.055,0.734,3.062,1.097c1.03,0.341,2.097,0.661,3.122,0.969c0.069,0.469,0.193,0.96,0.292,1.39c0.108,0.434,0.222,0.805,0.303,1.167c-0.822,0.106-1.655,0.236-2.471,0.35C61.483,118.831,61.401,118.841,61.316,118.85L61.316,118.85z M71.846,119.601c0.874-0.126,1.77-0.305,2.715-0.49c0.941-0.144,1.895-0.336,2.847-0.514c0.036-0.377,0.129-0.769,0.207-1.176c0.038-0.419,0.115-0.896,0.208-1.388c-0.979-0.235-1.951-0.465-2.977-0.714c-1.009-0.291-2.002-0.541-3.092-0.855c-1.004,0.272-2.041,0.551-3.064,0.827c-0.96,0.229-1.955,0.465-2.922,0.714c0.057,0.485,0.14,0.934,0.243,1.381c0.073,0.415,0.157,0.784,0.244,1.154c0.938,0.208,1.882,0.392,2.828,0.562C69.992,119.267,70.931,119.431,71.846,119.601L71.846,119.601z M90.725,116.222c0.185-0.373,0.35-0.76,0.511-1.158c-0.764-0.152-1.521-0.309-2.347-0.513c-0.8-0.202-1.652-0.393-2.569-0.62c-1.008,0.363-2.046,0.726-3.077,1.082c-1.04,0.322-2.025,0.648-3.064,0.955c-0.108,0.493-0.177,0.946-0.287,1.398c-0.112,0.412-0.165,0.789-0.264,1.159c0.821,0.122,1.667,0.22,2.482,0.336c0.188,0.028,0.375,0.055,0.562,0.08C85.469,118.283,88.159,117.367,90.725,116.222L90.725,116.222z M95.056,114c-0.639,0.37-1.285,0.725-1.94,1.065c0.043-0.094,0.084-0.19,0.128-0.287C93.862,114.522,94.465,114.26,95.056,114L95.056,114z M70.815,120.137c-0.002-0.096-0.01-0.192-0.022-0.286c-0.902-0.17-1.824-0.305-2.732-0.47c-0.945-0.171-1.848-0.343-2.801-0.533c-0.842,0.126-1.69,0.235-2.502,0.333C65.368,119.729,68.062,120.056,70.815,120.137z"/></g>
<linearGradient id="SVGID_1_" gradientUnits="userSpaceOnUse" x1="25.7354" y1="98.4902" x2="25.7354" y2="98.4902"><stop  offset="0.0545" style="stop-color:#BABABA"/><stop  offset="1" style="stop-color:#404040"/></linearGradient><path style="&st1;" d="M25.735,98.491"/>
<linearGradient id="SVGID_2_" gradientUnits="userSpaceOnUse" x1="36.1294" y1="28.0767" x2="106.9274" y2="59.598"><stop  offset="0.2303" style="stop-color:#20264D"/><stop  offset="0.3704" style="stop-color:#202850"/><stop  offset="0.5444" style="stop-color:#1F2D5A"/><stop  offset="0.7364" style="stop-color:#1D376C"/><stop  offset="0.9401" style="stop-color:#10478C"/><stop  offset="1" style="stop-color:#024E99"/></linearGradient><path style="&st2;" d="M27.382,55.036c0,0.207,0.223,0.737,0.736-0.206c0.471-7.475,14.118-25.606,45.923-3.704c15.137,8.614,15.391,14.108,16.733,14.435c13.626-1.028,24.19-14.942,21.108-26.382C86.716,1.045,27.382,17.136,27.382,55.036z"/>
<linearGradient id="SVGID_3_" gradientUnits="userSpaceOnUse" x1="-8505.4141" y1="894.2266" x2="-8420.376" y2="894.2266" gradientTransform="matrix(-0.5731 -0.8195 0.8195 -0.5731 -5541.1938 -6327.916)"><stop  offset="0.2303" style="stop-color:#20264D"/><stop  offset="0.3704" style="stop-color:#202850"/><stop  offset="0.5444" style="stop-color:#1F2D5A"/><stop  offset="0.7364" style="stop-color:#1D376C"/><stop  offset="0.9401" style="stop-color:#10478C"/><stop  offset="1" style="stop-color:#024E99"/></linearGradient><path style="&st3;" d="M77.195,122.013c0.17-0.117,0.477-0.605-0.59-0.484c-6.396,3.896-29.076,3.104-29.353-35.513c-1.614-17.34,2.743-20.697,2.241-21.984c-8.651-10.578-26.108-11.262-33.717-2.181C-1.053,104.328,46.136,143.731,77.195,122.013z"/>
<linearGradient id="SVGID_4_" gradientUnits="userSpaceOnUse" x1="-4818.8789" y1="-6640.5806" x2="-4733.8379" y2="-6640.5806" gradientTransform="matrix(-0.4742 0.8804 -0.8804 -0.4742 -8007.1191 1147.3933)"><stop  offset="0.2303" style="stop-color:#20264D"/><stop  offset="0.3704" style="stop-color:#202850"/><stop  offset="0.5444" style="stop-color:#1F2D5A"/><stop  offset="0.7364" style="stop-color:#1D376C"/><stop  offset="0.9401" style="stop-color:#10478C"/><stop  offset="1" style="stop-color:#024E99"/></linearGradient><path style="&st4;" d="M112.413,47.38c-0.183-0.099-0.755-0.154-0.167,0.745c6.356,3.959,15.849,24.572-18.518,42.188C78.967,99.555,74.01,97.173,73.086,98.2c-5.557,12.484,1.684,28.385,13.217,31.096C131.811,125.222,145.78,65.353,112.413,47.38z"/>
</svg>
