<?xml version="1.0" encoding="utf-8"?><!-- Generator: Adobe Illustrator 16.0.0, SVG Export Plug-In . SVG Version: 6.00 Build 0)  --><!DOCTYPE svg PUBLIC "-//W3C//DTD SVG 1.1//EN" "http://www.w3.org/Graphics/SVG/1.1/DTD/svg11.dtd">
<svg version="1.1" id="Layer_1" xmlns="http://www.w3.org/2000/svg" xmlns:xlink="http://www.w3.org/1999/xlink" x="0px" y="0px" width="180px" height="36px" viewBox="0 0 180 36" style="enable-background:new 0 0 180 36;" xml:space="preserve" role="img" area-label="Top Patch, Securing the Enterprise">
<title>Top Patch, Securing the Enterprise</title><desc>This image contains the company name and tagline: Top Patch, Securing the Enterprise</desc><style type="text/css"><![CDATA[.st0{fill:#595959;}.st1{fill:#242E66;}]]></style>
<g><g><path class="st1" d="M21.41,6.814v15.969H16.25V6.814H9V1.529h19.66v5.286H21.41z"/><path class="st1" d="M43.591,22.995h-6.999c-3.932,0-6.272-1.256-6.272-6.513v-5.358c0-5.306,2.341-6.507,6.272-6.507h6.999c3.932,0,6.272,1.202,6.272,6.507v5.358C49.863,21.739,47.523,22.995,43.591,22.995z M45.379,12.823c0-2.218-0.451-3.605-2.733-3.605h-5.11c-2.281,0-2.732,1.388-2.732,3.605v1.933c0,2.616,0.43,3.611,2.494,3.611h5.582c2.064,0,2.499-0.996,2.499-3.611V12.823z"/><path class="st1" d="M65.523,18.261h-8.671v4.522H52.49V4.801h11.893c4.146,0,5.147,2.638,5.147,6.169v1.541C69.53,15.175,68.59,18.261,65.523,18.261z M65.051,11.177c0-1.228-0.451-1.906-1.788-1.906h-6.41v4.521h6.782c1.024,0,1.417-0.836,1.417-1.911V11.177z"/><path class="st1" d="M87.557,17.442H77.311v5.341h-5.159V1.529H86.21c4.904,0,6.085,3.121,6.085,7.293v1.821C92.296,13.794,91.182,17.442,87.557,17.442z M86.999,9.07c0-1.452-0.534-2.256-2.111-2.256h-7.577v5.342h8.015c1.211,0,1.673-0.987,1.673-2.256V9.07z"/><path class="st1" d="M109.768,22.783l-1.354-3.188h-8.847l-1.279,3.188h-4.876l7.704-17.982h5.684l7.822,17.982H109.768z M103.951,8.98l-2.755,6.745h5.583L103.951,8.98z"/><path class="st1" d="M124.169,9.271v13.512h-4.361V9.271h-6.134v-4.47h16.63v4.47H124.169z"/><path class="st1" d="M145.2,22.995h-7.036c-3.937,0-6.267-1.256-6.267-6.513v-5.358c0-5.306,2.33-6.507,6.267-6.507h5.132c5.265,0,6.658,1.228,6.918,4.681c0.06,0.625,0.06,1.281,0.06,2.091h-4.361v-0.498c0-1.281-0.728-1.673-2.049-1.673h-4.755c-2.281,0-2.733,1.388-2.733,3.605v1.933c0,2.616,0.436,3.611,2.5,3.611h4.655c1.728,0,2.382-0.186,2.541-1.726c0.016-0.133,0.016-0.238,0.016-0.366v-0.392h4.361v1.7C150.448,20.612,149.59,22.995,145.2,22.995z"/><path class="st1" d="M166.64,22.783v-6.798h-9.202v6.798h-4.361V4.801h4.361v6.402h9.202V4.801H171v17.982H166.64z"/></g></g>
<g><path class="st0" d="M13.271,27.137l-0.132,1.204c-0.193-0.099-0.431-0.181-0.713-0.244c-0.283-0.065-0.543-0.096-0.78-0.096c-0.373,0-0.658,0.081-0.856,0.247s-0.297,0.358-0.297,0.573c0,0.166,0.055,0.317,0.166,0.455c0.11,0.137,0.324,0.271,0.642,0.399l1.092,0.446c0.403,0.163,0.719,0.411,0.947,0.747c0.229,0.336,0.343,0.719,0.343,1.148c0,0.39-0.079,0.729-0.236,1.018c-0.158,0.289-0.36,0.522-0.607,0.696c-0.248,0.174-0.537,0.299-0.868,0.377c-0.333,0.078-0.681,0.119-1.046,0.119c-0.579,0-1.18-0.099-1.803-0.291l0.132-1.325c0.223,0.132,0.48,0.24,0.772,0.322c0.291,0.083,0.572,0.124,0.843,0.124c0.422,0,0.745-0.094,0.967-0.282c0.222-0.187,0.332-0.405,0.332-0.657c0-0.188-0.06-0.354-0.18-0.495c-0.12-0.14-0.313-0.269-0.582-0.383l-1-0.433c-0.312-0.135-0.552-0.272-0.721-0.411c-0.224-0.179-0.394-0.39-0.51-0.629C9.059,29.526,9,29.25,9,28.935c0-0.606,0.218-1.102,0.655-1.489c0.437-0.385,1.077-0.577,1.92-0.577C12.12,26.868,12.685,26.956,13.271,27.137z"/><path class="st0" d="M16.432,34.166v-7.188h4.271v1.204H17.9v1.712h2.564v1.178H17.9v1.89h2.829v1.204H16.432z"/><path class="st0" d="M28.888,27.182l-0.117,1.24c-0.224-0.108-0.491-0.194-0.8-0.258c-0.31-0.062-0.592-0.094-0.846-0.094c-0.43,0-0.821,0.103-1.173,0.307c-0.352,0.205-0.621,0.5-0.805,0.881s-0.277,0.801-0.277,1.261c0,0.748,0.226,1.352,0.676,1.809c0.45,0.456,1.039,0.686,1.767,0.686c0.532,0,1.041-0.103,1.529-0.305l0.061,1.29c-0.186,0.058-0.445,0.11-0.777,0.161c-0.332,0.052-0.647,0.076-0.945,0.076c-0.667,0-1.275-0.11-1.823-0.334c-0.66-0.271-1.17-0.689-1.529-1.255s-0.538-1.253-0.538-2.062c0-1.11,0.342-2.007,1.028-2.687c0.686-0.68,1.596-1.022,2.73-1.022C27.696,26.876,28.309,26.979,28.888,27.182z"/><path class="st0" d="M31.333,26.944H32.8v4.25c0,0.375,0.027,0.668,0.081,0.879c0.054,0.209,0.145,0.391,0.269,0.545c0.125,0.155,0.271,0.278,0.438,0.368c0.166,0.092,0.396,0.138,0.69,0.138c0.484,0,0.858-0.147,1.122-0.442c0.264-0.293,0.396-0.791,0.396-1.487v-4.25h1.412v4.25c0,0.535-0.04,0.963-0.119,1.284s-0.19,0.579-0.333,0.776c-0.142,0.194-0.328,0.37-0.556,0.526c-0.229,0.157-0.477,0.274-0.744,0.348c-0.379,0.106-0.786,0.157-1.219,0.157c-0.43,0-0.815-0.047-1.155-0.143c-0.34-0.099-0.623-0.229-0.848-0.399c-0.225-0.17-0.401-0.356-0.526-0.56c-0.125-0.202-0.225-0.479-0.3-0.827c-0.051-0.237-0.076-0.665-0.076-1.285V26.944z"/><path class="st0" d="M40.233,26.944h2.057c0.592,0,0.985,0.01,1.178,0.03c0.288,0.033,0.526,0.097,0.716,0.187c0.19,0.092,0.364,0.223,0.523,0.391c0.159,0.17,0.281,0.365,0.364,0.582c0.083,0.219,0.124,0.452,0.124,0.698c0,0.282-0.048,0.528-0.145,0.739c-0.096,0.213-0.211,0.385-0.346,0.518c-0.134,0.136-0.275,0.237-0.424,0.312c-0.149,0.071-0.335,0.127-0.559,0.164c0.128,0.008,0.259,0.069,0.391,0.186c0.132,0.117,0.247,0.289,0.345,0.515l0.168,0.387l1.036,2.515h-1.625l-0.782-2.037c-0.092-0.238-0.159-0.396-0.203-0.478c-0.075-0.142-0.148-0.248-0.221-0.315c-0.073-0.067-0.153-0.114-0.241-0.142c-0.135-0.036-0.328-0.057-0.579-0.057c-0.088,0-0.191,0.006-0.31,0.016v3.013h-1.467V26.944z M41.701,28.076v1.96h0.64c0.463,0,0.803-0.099,1.018-0.295c0.215-0.194,0.322-0.448,0.322-0.756c0-0.264-0.096-0.481-0.287-0.653c-0.191-0.17-0.475-0.256-0.851-0.256H41.701z"/><path class="st0" d="M47.914,34.166v-7.222h1.468v7.222H47.914z"/><path class="st0" d="M52.279,34.166v-7.222h1.757l2.854,5.534v-5.534h1.311v7.222h-1.768l-2.854-5.537v5.537H52.279z"/><path class="st0" d="M67.01,27.157l-0.097,1.3c-0.206-0.108-0.501-0.207-0.883-0.297c-0.383-0.09-0.722-0.135-1.016-0.135c-0.478,0-0.915,0.103-1.311,0.305c-0.396,0.203-0.697,0.498-0.901,0.887c-0.205,0.387-0.307,0.829-0.307,1.327c0,0.506,0.105,0.95,0.314,1.337c0.21,0.385,0.512,0.672,0.907,0.859c0.394,0.188,0.802,0.283,1.221,0.283c0.132,0,0.289-0.015,0.47-0.039c0.181-0.024,0.317-0.054,0.408-0.084v-1.757h-1.528v-1.159h2.915v3.855c-0.379,0.125-0.791,0.222-1.236,0.287c-0.446,0.065-0.853,0.101-1.222,0.101c-0.528,0-1.026-0.074-1.493-0.222s-0.877-0.385-1.229-0.708c-0.352-0.326-0.622-0.726-0.81-1.2c-0.188-0.473-0.282-0.993-0.282-1.559c0-0.714,0.152-1.345,0.457-1.892s0.777-0.982,1.417-1.307c0.64-0.321,1.379-0.482,2.22-0.482C65.745,26.858,66.407,26.956,67.01,27.157z"/><path class="st0" d="M79.355,26.954v1.229h-2.097v5.983h-1.468v-5.983h-2.047v-1.229H79.355z"/><path class="st0" d="M81.674,34.166v-7.222h1.468v2.889h2.89v-2.889h1.468v7.222h-1.468v-3.108h-2.89v3.108H81.674z"/><path class="st0" d="M90.574,34.166v-7.188h4.271v1.204h-2.805v1.712h2.566v1.178h-2.566v1.89h2.83v1.204H90.574z"/><path class="st0" d="M102.052,34.166v-7.188h4.271v1.204h-2.804v1.712h2.564v1.178h-2.564v1.89h2.828v1.204H102.052z"/><path class="st0" d="M109.164,34.166v-7.222h1.758l2.854,5.534v-5.534h1.311v7.222h-1.769l-2.853-5.537v5.537H109.164z"/><path class="st0" d="M123.031,26.954v1.229h-2.097v5.983h-1.468v-5.983h-2.048v-1.229H123.031z"/><path class="st0" d="M125.333,34.166v-7.188h4.271v1.204h-2.804v1.712h2.565v1.178h-2.565v1.89h2.83v1.204H125.333z"/><path class="st0" d="M132.456,26.944h2.059c0.592,0,0.984,0.01,1.177,0.03c0.289,0.033,0.526,0.097,0.717,0.187c0.188,0.092,0.364,0.223,0.522,0.391c0.159,0.17,0.28,0.365,0.364,0.582c0.082,0.219,0.123,0.452,0.123,0.698c0,0.282-0.047,0.528-0.144,0.739c-0.097,0.213-0.213,0.385-0.346,0.518c-0.134,0.136-0.274,0.237-0.424,0.312c-0.149,0.071-0.336,0.127-0.56,0.164c0.129,0.008,0.26,0.069,0.392,0.186c0.133,0.117,0.247,0.289,0.346,0.515l0.168,0.387l1.036,2.515h-1.626l-0.782-2.037c-0.092-0.238-0.159-0.396-0.202-0.478c-0.076-0.142-0.149-0.248-0.222-0.315c-0.073-0.067-0.153-0.114-0.241-0.142c-0.136-0.036-0.328-0.057-0.58-0.057c-0.088,0-0.19,0.006-0.309,0.016v3.013h-1.469V26.944z M133.925,28.076v1.96h0.641c0.463,0,0.803-0.099,1.018-0.295c0.215-0.194,0.321-0.448,0.321-0.756c0-0.264-0.094-0.481-0.286-0.653c-0.19-0.17-0.476-0.256-0.85-0.256H133.925z"/><path class="st0" d="M140.147,34.166v-7.222h1.591c0.618,0,1.027,0.012,1.225,0.034c0.348,0.047,0.639,0.127,0.872,0.24c0.233,0.11,0.442,0.264,0.622,0.458c0.181,0.194,0.319,0.418,0.414,0.668c0.094,0.252,0.144,0.521,0.144,0.812c0,0.326-0.06,0.623-0.175,0.889c-0.114,0.269-0.266,0.5-0.454,0.694c-0.187,0.194-0.396,0.342-0.623,0.442c-0.225,0.098-0.493,0.172-0.8,0.219c-0.187,0.029-0.431,0.039-0.733,0.031l-0.614-0.011v2.744H140.147z M141.615,28.05v2.25c0.153,0.004,0.254,0.006,0.305,0.006c0.356,0,0.627-0.028,0.813-0.086c0.114-0.041,0.233-0.104,0.352-0.19c0.121-0.088,0.22-0.2,0.295-0.342c0.076-0.139,0.115-0.317,0.115-0.534c0-0.332-0.123-0.602-0.369-0.811c-0.245-0.209-0.641-0.312-1.186-0.312C141.849,28.031,141.74,28.037,141.615,28.05z"/><path class="st0" d="M147.403,26.944h2.057c0.594,0,0.984,0.01,1.179,0.03c0.287,0.033,0.526,0.097,0.715,0.187c0.19,0.092,0.364,0.223,0.524,0.391c0.159,0.17,0.28,0.365,0.362,0.582c0.084,0.219,0.125,0.452,0.125,0.698c0,0.282-0.05,0.528-0.146,0.739c-0.097,0.213-0.211,0.385-0.344,0.518c-0.136,0.136-0.276,0.237-0.426,0.312c-0.147,0.071-0.334,0.127-0.558,0.164c0.127,0.008,0.258,0.069,0.392,0.186c0.131,0.117,0.245,0.289,0.344,0.515l0.168,0.387l1.036,2.515h-1.626l-0.782-2.037c-0.09-0.238-0.157-0.396-0.202-0.478c-0.074-0.142-0.147-0.248-0.222-0.315c-0.071-0.067-0.151-0.114-0.239-0.142c-0.138-0.036-0.33-0.057-0.58-0.057c-0.088,0-0.192,0.006-0.311,0.016v3.013h-1.467V26.944z M148.87,28.076v1.96h0.641c0.465,0,0.803-0.099,1.018-0.295c0.215-0.194,0.323-0.448,0.323-0.756c0-0.264-0.096-0.481-0.286-0.653c-0.192-0.17-0.476-0.256-0.852-0.256H148.87z"/><path class="st0" d="M155.084,34.166v-7.222h1.469v7.222H155.084z"/><path class="st0" d="M163.543,27.137l-0.134,1.204c-0.192-0.099-0.43-0.181-0.712-0.244c-0.283-0.065-0.543-0.096-0.78-0.096c-0.373,0-0.657,0.081-0.855,0.247c-0.199,0.166-0.297,0.358-0.297,0.573c0,0.166,0.055,0.317,0.165,0.455c0.108,0.137,0.324,0.271,0.642,0.399l1.093,0.446c0.403,0.163,0.719,0.411,0.946,0.747c0.229,0.336,0.344,0.719,0.344,1.148c0,0.39-0.08,0.729-0.237,1.018c-0.155,0.289-0.358,0.522-0.606,0.696c-0.247,0.174-0.536,0.299-0.868,0.377c-0.331,0.078-0.68,0.119-1.046,0.119c-0.579,0-1.18-0.099-1.804-0.291l0.133-1.325c0.224,0.132,0.481,0.24,0.771,0.322c0.291,0.083,0.571,0.124,0.844,0.124c0.422,0,0.746-0.094,0.967-0.282c0.221-0.187,0.334-0.405,0.334-0.657c0-0.188-0.062-0.354-0.181-0.495c-0.12-0.14-0.315-0.269-0.581-0.383l-1.002-0.433c-0.311-0.135-0.553-0.272-0.721-0.411c-0.223-0.179-0.393-0.39-0.512-0.629c-0.116-0.241-0.174-0.518-0.174-0.833c0-0.606,0.219-1.102,0.655-1.489c0.437-0.385,1.077-0.577,1.919-0.577C162.392,26.868,162.957,26.956,163.543,27.137z"/><path class="st0" d="M166.704,34.166v-7.188h4.271v1.204h-2.804v1.712h2.564v1.178h-2.564v1.89H171v1.204H166.704z"/></g>
</svg>
